# xmcd CD database file
#
# Track frame offsets:
#	150
#	19901
#	40048
#	70463
#	85811
#	111883
#
# Disc length: 1652 seconds
#
# Revision: 0
# Processed by: cddbd v1.4PL0 Copyright (c) Steve Scherf et al.
# Submitted via: Feurio! 1.65 - http://www.feurio.com
#
DISCID=48067206
DTITLE=Groove and Snoop Quartett - Wedding in the mud
DYEAR=1900
DGENRE=Blues
TTITLE0=You've got to move
TTITLE1=Mercury Blues
TTITLE2=40 days and 40 nights
TTITLE3=Whatcha want me to do
TTITLE4=Buddy Bolden Blues
TTITLE5=Feet don't fail me now
EXTD=
EXTT0=
EXTT1=
EXTT2=
EXTT3=
EXTT4=
EXTT5=
PLAYORDER=
